<svg width="34" height="27" viewBox="0 0 34 27" fill="none" xmlns="http://www.w3.org/2000/svg">
<path d="M0 16.5831C0 22.764 4.00428 26.3068 8.4454 26.3068C12.5225 26.3068 16.0171 22.764 16.0171 18.3921C16.0171 14.171 13.1777 11.382 9.68308 11.382C8.88223 11.382 8.15417 11.5328 7.79015 11.6835C8.73662 8.81918 12.0857 5.50257 14.4154 4.44728L9.10064 0C3.42184 4.14577 0 9.94985 0 16.5831ZM17.9829 16.5831C17.9829 22.764 21.9872 26.3068 26.4283 26.3068C30.5054 26.3068 34 22.764 34 18.3921C34 14.171 31.1606 11.382 27.6659 11.382C26.8651 11.382 26.137 11.5328 25.773 11.6835C26.7195 8.81918 30.0685 5.50257 32.3983 4.44728L27.0835 0C21.4047 4.14577 17.9829 9.94985 17.9829 16.5831Z" fill="#F53838"/>
</svg>
