<svg width="20" height="20" viewBox="0 0 20 20" fill="none" xmlns="http://www.w3.org/2000/svg">
<path d="M9.9998 0C4.48591 0 0 4.486 0 10C0 15.514 4.48591 20 9.9998 20C15.5137 20 19.9996 15.514 19.9996 10C19.9996 4.486 15.5137 0 9.9998 0ZM8.00084 14.413L4.99534 11.4139C4.6046 11.024 4.60381 10.3912 4.99357 10.0003C5.38359 9.60919 6.0169 9.60847 6.40781 9.99871L7.99884 11.587L12.5857 7.00001C12.9762 6.60954 13.6093 6.60954 13.9997 7.00001C14.3902 7.39047 14.3902 8.02353 13.9997 8.41399L8.00084 14.413Z" fill="#F53838"/>
</svg>
